<svg width="40" height="40" viewBox="0 0 40 40" fill="none" xmlns="http://www.w3.org/2000/svg">
<rect width="40" height="40" rx="4" fill="#009AF2"/>
<path fill-rule="evenodd" clip-rule="evenodd" d="M26.9293 11.2801C26.7538 10.9222 26.3981 10.6874 26 10.6667H14C13.6019 10.6874 13.2462 10.9222 13.0707 11.2801L10.42 17.4641L11.0467 16.0001H8V18.0001C8.00074 18.368 8.29878 18.666 8.66667 18.6667C8.81138 18.4778 8.97538 18.3044 9.156 18.1494C8.42063 18.7913 7.99906 19.72 8 20.6961V30.0001C8.00074 30.368 8.29878 30.666 8.66667 30.6667H11.3333C11.7012 30.666 11.9993 30.368 12 30.0001V27.5587C14.6543 27.8792 17.3266 28.0266 20 28.0001C22.6739 28.0266 25.3466 27.8792 28.0013 27.5587L28 30.0001C28.0007 30.368 28.2988 30.666 28.6667 30.6667H31.3333C31.7012 30.666 31.9993 30.368 32 30.0001V20.6961C31.9992 19.7199 31.5762 18.7918 30.84 18.1507C31.0172 18.3055 31.1776 18.4785 31.3187 18.6667H31.3333C31.7012 18.666 31.9993 18.368 32 18.0001V16.0001H28.952L26.9293 11.2801ZM14.2133 12.0001H25.7867L28.0733 17.3334H11.9267L14.2133 12.0001ZM10.6667 29.3334H9.33333V26.9467C9.58648 27.0959 9.86271 27.2018 10.1507 27.2601C10.308 27.2921 10.4893 27.3241 10.6667 27.3547V29.3334ZM30.6667 29.3334H29.3333V27.3547C29.5107 27.3241 29.692 27.2921 29.8493 27.2614C30.1373 27.2025 30.4135 27.0962 30.6667 26.9467V29.3334ZM29.9667 19.1574C30.4115 19.545 30.6668 20.1061 30.6667 20.6961V24.6241C30.6688 25.2668 30.2185 25.8223 29.5893 25.9534C26.4184 26.4582 23.2107 26.6968 20 26.6667C16.7893 26.6963 13.5817 26.4577 10.4107 25.9534C9.78146 25.8223 9.33123 25.2668 9.33333 24.6241V20.6961C9.33244 20.1055 9.58723 19.5434 10.032 19.1547C10.2515 18.9646 10.51 18.8249 10.7893 18.7454L11.0613 18.6667H28.936L29.2093 18.7467C29.4887 18.8267 29.7472 18.9669 29.9667 19.1574ZM26.6667 21.3334H29.3333V22.6667C29.3333 23.4031 28.7364 24.0001 28 24.0001H25.3333L26.6667 21.3334ZM13.3333 21.3334L14.6667 24.0001H12C11.2636 24.0001 10.6667 23.4031 10.6667 22.6667V21.3334H13.3333ZM16 22.6667H24V24.0001H16V22.6667Z" fill="#151515"/>
</svg>
